<mxfile host="app.diagrams.net" agent="Mozilla/5.0 (Macintosh; Intel Mac OS X 10_15_7) AppleWebKit/537.36 (KHTML, like Gecko) Chrome/127.0.0.0 Safari/537.36" version="24.7.7">
  <diagram name="Page-1" id="fcZhdtvS9p5PEWPYI8Sy">
    <mxGraphModel dx="4412" dy="2765" grid="1" gridSize="10" guides="1" tooltips="1" connect="1" arrows="1" fold="1" page="1" pageScale="1" pageWidth="827" pageHeight="1169" math="0" shadow="0">
      <root>
        <mxCell id="0" />
        <mxCell id="1" parent="0" />
        <mxCell id="7268VmPEQmdFCBt6fVRC-1" value="" style="html=1;jettySize=18;whiteSpace=wrap;fontSize=13;strokeColor=#3a414a;strokeOpacity=100;strokeWidth=0.8;rounded=1;arcSize=12;edgeStyle=orthogonalEdgeStyle;startArrow=none;endArrow=block;endFill=1;exitX=0.5;exitY=1.017;exitPerimeter=0;entryX=0.5;entryY=0;entryPerimeter=0;lucidId=GWr79bhpcn.O;" edge="1" parent="1" source="7268VmPEQmdFCBt6fVRC-14" target="7268VmPEQmdFCBt6fVRC-33">
          <mxGeometry width="100" height="100" relative="1" as="geometry">
            <Array as="points" />
          </mxGeometry>
        </mxCell>
        <mxCell id="7268VmPEQmdFCBt6fVRC-2" value="" style="html=1;jettySize=18;whiteSpace=wrap;fontSize=13;strokeColor=#3a414a;strokeOpacity=100;strokeWidth=0.8;rounded=1;arcSize=12;edgeStyle=orthogonalEdgeStyle;startArrow=none;endArrow=block;endFill=1;exitX=0.5;exitY=1.017;exitPerimeter=0;entryX=0.5;entryY=0;entryPerimeter=0;lucidId=5Yr7krDCe1~g;" edge="1" parent="1" source="7268VmPEQmdFCBt6fVRC-14" target="7268VmPEQmdFCBt6fVRC-34">
          <mxGeometry width="100" height="100" relative="1" as="geometry">
            <Array as="points" />
          </mxGeometry>
        </mxCell>
        <mxCell id="7268VmPEQmdFCBt6fVRC-3" value="" style="html=1;jettySize=18;whiteSpace=wrap;fontSize=13;strokeColor=#3a414a;strokeOpacity=100;strokeWidth=0.8;rounded=1;arcSize=12;edgeStyle=orthogonalEdgeStyle;startArrow=none;endArrow=block;endFill=1;exitX=0.5;exitY=1.017;exitPerimeter=0;entryX=0.5;entryY=0;entryPerimeter=0;lucidId=9Yr7BtLrKn6U;" edge="1" parent="1" source="7268VmPEQmdFCBt6fVRC-14" target="7268VmPEQmdFCBt6fVRC-35">
          <mxGeometry width="100" height="100" relative="1" as="geometry">
            <Array as="points" />
          </mxGeometry>
        </mxCell>
        <mxCell id="7268VmPEQmdFCBt6fVRC-4" value="" style="html=1;jettySize=18;whiteSpace=wrap;fontSize=13;strokeColor=#3a414a;strokeOpacity=100;strokeWidth=0.8;rounded=1;arcSize=12;edgeStyle=orthogonalEdgeStyle;startArrow=none;endArrow=block;endFill=1;exitX=0.5;exitY=1.017;exitPerimeter=0;entryX=0.5;entryY=0;entryPerimeter=0;lucidId=.Yr72rbnCcZs;" edge="1" parent="1" source="7268VmPEQmdFCBt6fVRC-14" target="7268VmPEQmdFCBt6fVRC-36">
          <mxGeometry width="100" height="100" relative="1" as="geometry">
            <Array as="points" />
          </mxGeometry>
        </mxCell>
        <mxCell id="7268VmPEQmdFCBt6fVRC-5" value="" style="html=1;jettySize=18;whiteSpace=wrap;fontSize=13;strokeColor=#3a414a;strokeOpacity=100;strokeWidth=0.8;rounded=1;arcSize=12;edgeStyle=orthogonalEdgeStyle;startArrow=none;endArrow=block;endFill=1;exitX=0.5;exitY=1.017;exitPerimeter=0;entryX=0.5;entryY=0;entryPerimeter=0;lucidId=xZr7r6feh.bM;" edge="1" parent="1" source="7268VmPEQmdFCBt6fVRC-15" target="7268VmPEQmdFCBt6fVRC-37">
          <mxGeometry width="100" height="100" relative="1" as="geometry">
            <Array as="points" />
          </mxGeometry>
        </mxCell>
        <mxCell id="7268VmPEQmdFCBt6fVRC-6" value="" style="html=1;jettySize=18;whiteSpace=wrap;fontSize=13;strokeColor=#3a414a;strokeOpacity=100;strokeWidth=0.8;rounded=1;arcSize=12;edgeStyle=orthogonalEdgeStyle;startArrow=none;endArrow=block;endFill=1;exitX=0.5;exitY=1.017;exitPerimeter=0;entryX=0.5;entryY=0;entryPerimeter=0;lucidId=v0r7iEhE~4Hi;" edge="1" parent="1" source="7268VmPEQmdFCBt6fVRC-15" target="7268VmPEQmdFCBt6fVRC-38">
          <mxGeometry width="100" height="100" relative="1" as="geometry">
            <Array as="points" />
          </mxGeometry>
        </mxCell>
        <mxCell id="7268VmPEQmdFCBt6fVRC-7" value="" style="html=1;jettySize=18;whiteSpace=wrap;fontSize=13;strokeColor=#3a414a;strokeOpacity=100;strokeWidth=0.8;rounded=1;arcSize=12;edgeStyle=orthogonalEdgeStyle;startArrow=none;endArrow=block;endFill=1;exitX=0.5;exitY=1.017;exitPerimeter=0;entryX=0.5;entryY=0;entryPerimeter=0;lucidId=y0r72r68KfXO;" edge="1" parent="1" source="7268VmPEQmdFCBt6fVRC-15" target="7268VmPEQmdFCBt6fVRC-39">
          <mxGeometry width="100" height="100" relative="1" as="geometry">
            <Array as="points" />
          </mxGeometry>
        </mxCell>
        <mxCell id="7268VmPEQmdFCBt6fVRC-8" value="" style="html=1;jettySize=18;whiteSpace=wrap;fontSize=13;strokeColor=#3a414a;strokeOpacity=100;strokeWidth=0.8;rounded=1;arcSize=12;edgeStyle=orthogonalEdgeStyle;startArrow=none;endArrow=block;endFill=1;exitX=0.5;exitY=1.017;exitPerimeter=0;entryX=0.5;entryY=0;entryPerimeter=0;lucidId=C0r7mXWmIQKI;" edge="1" parent="1" source="7268VmPEQmdFCBt6fVRC-15" target="7268VmPEQmdFCBt6fVRC-40">
          <mxGeometry width="100" height="100" relative="1" as="geometry">
            <Array as="points" />
          </mxGeometry>
        </mxCell>
        <mxCell id="7268VmPEQmdFCBt6fVRC-9" value="&lt;div style=&quot;display: flex; justify-content: center; text-align: center; align-items: baseline; font-size: 0; line-height: 1.25;margin-top: -2px;&quot;&gt;&lt;span&gt;&lt;span style=&quot;font-size:16.7px;&quot;&gt;Durée du travail estimée ?&#xa;&lt;/span&gt;&lt;span style=&quot;font-size:13.3px;font-style: italic;&quot;&gt;Calculé en jour par personne&lt;/span&gt;&lt;/span&gt;&lt;/div&gt;" style="html=1;overflow=block;blockSpacing=1;whiteSpace=wrap;fontSize=13;spacing=3.8;strokeColor=#unset;rounded=1;absoluteArcSize=1;arcSize=9;fillColor=#unset;strokeWidth=NaN;lucidId=x1r7ZiWbzoMB;" vertex="1" parent="1">
          <mxGeometry x="-577" y="526" width="135" height="88" as="geometry" />
        </mxCell>
        <mxCell id="7268VmPEQmdFCBt6fVRC-10" value="" style="html=1;jettySize=18;whiteSpace=wrap;fontSize=13;strokeColor=#3a414a;strokeOpacity=100;strokeWidth=0.8;rounded=1;arcSize=12;edgeStyle=orthogonalEdgeStyle;startArrow=none;endArrow=block;endFill=1;exitX=0.5;exitY=1;exitPerimeter=0;entryX=0.5;entryY=-0.017;entryPerimeter=0;lucidId=e2r7PKSp98cc;" edge="1" parent="1" source="7268VmPEQmdFCBt6fVRC-33" target="7268VmPEQmdFCBt6fVRC-15">
          <mxGeometry width="100" height="100" relative="1" as="geometry">
            <Array as="points" />
          </mxGeometry>
        </mxCell>
        <mxCell id="7268VmPEQmdFCBt6fVRC-11" value="" style="html=1;jettySize=18;whiteSpace=wrap;fontSize=13;strokeColor=#3a414a;strokeOpacity=100;strokeWidth=0.8;rounded=1;arcSize=12;edgeStyle=orthogonalEdgeStyle;startArrow=none;endArrow=block;endFill=1;exitX=0.5;exitY=1;exitPerimeter=0;entryX=0.5;entryY=-0.017;entryPerimeter=0;lucidId=j2r7BA~THjf5;" edge="1" parent="1" source="7268VmPEQmdFCBt6fVRC-34" target="7268VmPEQmdFCBt6fVRC-15">
          <mxGeometry width="100" height="100" relative="1" as="geometry">
            <Array as="points" />
          </mxGeometry>
        </mxCell>
        <mxCell id="7268VmPEQmdFCBt6fVRC-12" value="" style="html=1;jettySize=18;whiteSpace=wrap;fontSize=13;strokeColor=#3a414a;strokeOpacity=100;strokeWidth=0.8;rounded=1;arcSize=12;edgeStyle=orthogonalEdgeStyle;startArrow=none;endArrow=block;endFill=1;exitX=0.5;exitY=1;exitPerimeter=0;entryX=0.5;entryY=-0.017;entryPerimeter=0;lucidId=q2r7TWV4VOhJ;" edge="1" parent="1" source="7268VmPEQmdFCBt6fVRC-35" target="7268VmPEQmdFCBt6fVRC-15">
          <mxGeometry width="100" height="100" relative="1" as="geometry">
            <Array as="points" />
          </mxGeometry>
        </mxCell>
        <mxCell id="7268VmPEQmdFCBt6fVRC-13" value="" style="html=1;jettySize=18;whiteSpace=wrap;fontSize=13;strokeColor=#3a414a;strokeOpacity=100;strokeWidth=0.8;rounded=1;arcSize=12;edgeStyle=orthogonalEdgeStyle;startArrow=none;endArrow=block;endFill=1;exitX=0.5;exitY=1;exitPerimeter=0;entryX=0.5;entryY=-0.017;entryPerimeter=0;lucidId=u2r7fU8hXIdy;" edge="1" parent="1" source="7268VmPEQmdFCBt6fVRC-36" target="7268VmPEQmdFCBt6fVRC-15">
          <mxGeometry width="100" height="100" relative="1" as="geometry">
            <Array as="points" />
          </mxGeometry>
        </mxCell>
        <mxCell id="7268VmPEQmdFCBt6fVRC-14" value="Type de tâche ?" style="html=1;overflow=block;blockSpacing=1;whiteSpace=wrap;fontSize=16.7;spacing=3.8;strokeColor=#unset;rounded=1;absoluteArcSize=1;arcSize=9;fillColor=#unset;strokeWidth=NaN;lucidId=j4r7KApGNP3D;" vertex="1" parent="1">
          <mxGeometry x="-600" y="-315" width="143" height="45" as="geometry" />
        </mxCell>
        <mxCell id="7268VmPEQmdFCBt6fVRC-15" value="Quelle priorité ?" style="html=1;overflow=block;blockSpacing=1;whiteSpace=wrap;fontSize=16.7;spacing=3.8;strokeColor=#unset;rounded=1;absoluteArcSize=1;arcSize=9;fillColor=#unset;strokeWidth=NaN;lucidId=y4r7EGyVs_DY;" vertex="1" parent="1">
          <mxGeometry x="-600" y="180" width="150" height="45" as="geometry" />
        </mxCell>
        <mxCell id="7268VmPEQmdFCBt6fVRC-16" value="" style="html=1;jettySize=18;whiteSpace=wrap;fontSize=13;strokeColor=#3a414a;strokeOpacity=100;strokeWidth=0.8;rounded=1;arcSize=12;edgeStyle=orthogonalEdgeStyle;startArrow=none;endArrow=block;endFill=1;exitX=0.5;exitY=1;exitPerimeter=0;entryX=0.5;entryY=-0.009;entryPerimeter=0;lucidId=i6r7.LIMNPZT;" edge="1" parent="1" source="7268VmPEQmdFCBt6fVRC-37" target="7268VmPEQmdFCBt6fVRC-9">
          <mxGeometry width="100" height="100" relative="1" as="geometry">
            <Array as="points" />
          </mxGeometry>
        </mxCell>
        <mxCell id="7268VmPEQmdFCBt6fVRC-17" value="" style="html=1;jettySize=18;whiteSpace=wrap;fontSize=13;strokeColor=#3a414a;strokeOpacity=100;strokeWidth=0.8;rounded=1;arcSize=12;edgeStyle=orthogonalEdgeStyle;startArrow=none;endArrow=block;endFill=1;exitX=0.5;exitY=1;exitPerimeter=0;entryX=0.5;entryY=-0.009;entryPerimeter=0;lucidId=p6r7za8y9WH8;" edge="1" parent="1" source="7268VmPEQmdFCBt6fVRC-38" target="7268VmPEQmdFCBt6fVRC-9">
          <mxGeometry width="100" height="100" relative="1" as="geometry">
            <Array as="points" />
          </mxGeometry>
        </mxCell>
        <mxCell id="7268VmPEQmdFCBt6fVRC-18" value="" style="html=1;jettySize=18;whiteSpace=wrap;fontSize=13;strokeColor=#3a414a;strokeOpacity=100;strokeWidth=0.8;rounded=1;arcSize=12;edgeStyle=orthogonalEdgeStyle;startArrow=none;endArrow=block;endFill=1;exitX=0.5;exitY=1;exitPerimeter=0;entryX=0.5;entryY=-0.009;entryPerimeter=0;lucidId=B6r7BVNr0MH5;" edge="1" parent="1" source="7268VmPEQmdFCBt6fVRC-39" target="7268VmPEQmdFCBt6fVRC-9">
          <mxGeometry width="100" height="100" relative="1" as="geometry">
            <Array as="points" />
          </mxGeometry>
        </mxCell>
        <mxCell id="7268VmPEQmdFCBt6fVRC-19" value="" style="html=1;jettySize=18;whiteSpace=wrap;fontSize=13;strokeColor=#3a414a;strokeOpacity=100;strokeWidth=0.8;rounded=1;arcSize=12;edgeStyle=orthogonalEdgeStyle;startArrow=none;endArrow=block;endFill=1;exitX=0.5;exitY=1;exitPerimeter=0;entryX=0.5;entryY=-0.009;entryPerimeter=0;lucidId=F6r7zuVkJyv7;" edge="1" parent="1" source="7268VmPEQmdFCBt6fVRC-40" target="7268VmPEQmdFCBt6fVRC-41">
          <mxGeometry width="100" height="100" relative="1" as="geometry">
            <Array as="points" />
          </mxGeometry>
        </mxCell>
        <mxCell id="7268VmPEQmdFCBt6fVRC-20" value="" style="html=1;jettySize=18;whiteSpace=wrap;fontSize=13;strokeColor=#3a414a;strokeOpacity=100;strokeWidth=0.8;rounded=1;arcSize=12;edgeStyle=orthogonalEdgeStyle;startArrow=none;endArrow=block;endFill=1;exitX=0.5;exitY=1.009;exitPerimeter=0;entryX=0.5;entryY=0;entryPerimeter=0;lucidId=V6r7g9qa6I1i;" edge="1" parent="1" source="7268VmPEQmdFCBt6fVRC-9" target="7268VmPEQmdFCBt6fVRC-21">
          <mxGeometry width="100" height="100" relative="1" as="geometry">
            <Array as="points" />
          </mxGeometry>
        </mxCell>
        <mxCell id="7268VmPEQmdFCBt6fVRC-21" value="0.25 à 6 j/h" style="html=1;overflow=block;blockSpacing=1;whiteSpace=wrap;fontSize=16.7;spacing=3.8;strokeOpacity=0;fillOpacity=0;rounded=1;absoluteArcSize=1;arcSize=9;fillColor=#ffffff;strokeWidth=NaN;lucidId=X6r7Kn.4M4vJ;" vertex="1" parent="1">
          <mxGeometry x="-555" y="675" width="90" height="45" as="geometry" />
        </mxCell>
        <mxCell id="7268VmPEQmdFCBt6fVRC-22" value="" style="html=1;jettySize=18;whiteSpace=wrap;fontSize=13;strokeColor=#3a414a;strokeOpacity=100;strokeWidth=0.8;rounded=1;arcSize=12;edgeStyle=orthogonalEdgeStyle;startArrow=none;endArrow=block;endFill=1;exitX=1.006;exitY=0.5;exitPerimeter=0;entryX=0;entryY=0.5;entryPerimeter=0;lucidId=y7r762tDR9xW;" edge="1" parent="1" source="7268VmPEQmdFCBt6fVRC-9" target="7268VmPEQmdFCBt6fVRC-23">
          <mxGeometry width="100" height="100" relative="1" as="geometry">
            <Array as="points" />
          </mxGeometry>
        </mxCell>
        <mxCell id="7268VmPEQmdFCBt6fVRC-23" value="&amp;gt; 6 j/h" style="html=1;overflow=block;blockSpacing=1;whiteSpace=wrap;fontSize=16.7;spacing=3.8;strokeOpacity=0;fillOpacity=0;rounded=1;absoluteArcSize=1;arcSize=9;fillColor=#ffffff;strokeWidth=NaN;lucidId=z7r7cQ-Ino3h;" vertex="1" parent="1">
          <mxGeometry x="-75" y="551" width="75" height="38" as="geometry" />
        </mxCell>
        <mxCell id="7268VmPEQmdFCBt6fVRC-24" value="" style="html=1;jettySize=18;whiteSpace=wrap;fontSize=13;strokeColor=#3a414a;strokeOpacity=100;strokeWidth=0.8;rounded=1;arcSize=12;edgeStyle=orthogonalEdgeStyle;startArrow=none;endArrow=block;endFill=1;exitX=1;exitY=0.5;exitPerimeter=0;entryX=0.5;entryY=1.006;entryPerimeter=0;lucidId=.7r77-tQ36O4;" edge="1" parent="1" source="7268VmPEQmdFCBt6fVRC-23" target="7268VmPEQmdFCBt6fVRC-25">
          <mxGeometry width="100" height="100" relative="1" as="geometry">
            <Array as="points">
              <mxPoint x="15" y="570" />
            </Array>
          </mxGeometry>
        </mxCell>
        <mxCell id="7268VmPEQmdFCBt6fVRC-25" value="Séquençable en plusieurs tâches ?" style="html=1;overflow=block;blockSpacing=1;whiteSpace=wrap;fontSize=16.7;spacing=3.8;strokeColor=#unset;rounded=1;absoluteArcSize=1;arcSize=9;fillColor=#unset;strokeWidth=NaN;lucidId=~7r7wULAlt~f;" vertex="1" parent="1">
          <mxGeometry x="-45" y="-516" width="120" height="120" as="geometry" />
        </mxCell>
        <mxCell id="7268VmPEQmdFCBt6fVRC-26" value="" style="html=1;jettySize=18;whiteSpace=wrap;fontSize=13;strokeColor=#3a414a;strokeOpacity=100;strokeWidth=0.8;rounded=1;arcSize=12;edgeStyle=orthogonalEdgeStyle;startArrow=none;endArrow=block;endFill=1;exitX=-0.006;exitY=0.5;exitPerimeter=0;entryX=1;entryY=0.5;entryPerimeter=0;lucidId=B_r7NjkyLdqk;" edge="1" parent="1" source="7268VmPEQmdFCBt6fVRC-25" target="7268VmPEQmdFCBt6fVRC-27">
          <mxGeometry width="100" height="100" relative="1" as="geometry">
            <Array as="points" />
          </mxGeometry>
        </mxCell>
        <mxCell id="7268VmPEQmdFCBt6fVRC-27" value="Oui" style="html=1;overflow=block;blockSpacing=1;whiteSpace=wrap;fontSize=16.7;spacing=3.8;strokeOpacity=0;fillOpacity=0;rounded=1;absoluteArcSize=1;arcSize=9;fillColor=#ffffff;strokeWidth=NaN;lucidId=C_r7Z1mVk2do;" vertex="1" parent="1">
          <mxGeometry x="-255" y="-479" width="75" height="45" as="geometry" />
        </mxCell>
        <mxCell id="7268VmPEQmdFCBt6fVRC-28" value="" style="html=1;jettySize=18;whiteSpace=wrap;fontSize=13;strokeColor=#3a414a;strokeOpacity=100;strokeWidth=0.8;rounded=1;arcSize=12;edgeStyle=orthogonalEdgeStyle;startArrow=none;endArrow=block;endFill=1;exitX=0;exitY=0.5;exitPerimeter=0;entryX=1.005;entryY=0.5;entryPerimeter=0;lucidId=K_r78cQTjE8Y;" edge="1" parent="1" source="7268VmPEQmdFCBt6fVRC-27" target="7268VmPEQmdFCBt6fVRC-43">
          <mxGeometry width="100" height="100" relative="1" as="geometry">
            <Array as="points" />
          </mxGeometry>
        </mxCell>
        <mxCell id="7268VmPEQmdFCBt6fVRC-29" value="" style="html=1;jettySize=18;whiteSpace=wrap;fontSize=13;strokeColor=#3a414a;strokeOpacity=100;strokeWidth=0.8;rounded=1;arcSize=12;edgeStyle=orthogonalEdgeStyle;startArrow=none;endArrow=block;endFill=1;exitX=1.006;exitY=0.5;exitPerimeter=0;entryX=0;entryY=0.5;entryPerimeter=0;lucidId=S_r7kf0IIELZ;" edge="1" parent="1" source="7268VmPEQmdFCBt6fVRC-25" target="7268VmPEQmdFCBt6fVRC-30">
          <mxGeometry width="100" height="100" relative="1" as="geometry">
            <Array as="points" />
          </mxGeometry>
        </mxCell>
        <mxCell id="7268VmPEQmdFCBt6fVRC-30" value="Non" style="html=1;overflow=block;blockSpacing=1;whiteSpace=wrap;fontSize=16.7;spacing=3.8;strokeOpacity=0;fillOpacity=0;rounded=1;absoluteArcSize=1;arcSize=9;fillColor=#ffffff;strokeWidth=NaN;lucidId=T_r7yN.Xvmcp;" vertex="1" parent="1">
          <mxGeometry x="120" y="-479" width="75" height="45" as="geometry" />
        </mxCell>
        <mxCell id="7268VmPEQmdFCBt6fVRC-31" value="" style="html=1;jettySize=18;whiteSpace=wrap;fontSize=13;strokeColor=#3a414a;strokeOpacity=100;strokeWidth=0.8;rounded=1;arcSize=12;edgeStyle=orthogonalEdgeStyle;startArrow=none;endArrow=block;endFill=1;exitX=1;exitY=0.5;exitPerimeter=0;entryX=-0.006;entryY=0.5;entryPerimeter=0;lucidId=-_r7Xxgt.JMU;" edge="1" parent="1" source="7268VmPEQmdFCBt6fVRC-30" target="7268VmPEQmdFCBt6fVRC-32">
          <mxGeometry width="100" height="100" relative="1" as="geometry">
            <Array as="points" />
          </mxGeometry>
        </mxCell>
        <mxCell id="7268VmPEQmdFCBt6fVRC-32" value="Création d&#39;un projet" style="html=1;overflow=block;blockSpacing=1;whiteSpace=wrap;fontSize=16.7;spacing=3.8;strokeColor=#unset;rounded=1;absoluteArcSize=1;arcSize=9;fillColor=#unset;strokeWidth=NaN;lucidId=__r7heEoI50M;" vertex="1" parent="1">
          <mxGeometry x="240" y="-516" width="120" height="120" as="geometry" />
        </mxCell>
        <mxCell id="7268VmPEQmdFCBt6fVRC-33" value="Bug en production" style="html=1;overflow=block;blockSpacing=1;whiteSpace=wrap;fontSize=16.7;spacing=3.8;strokeOpacity=0;fillOpacity=0;rounded=1;absoluteArcSize=1;arcSize=9;fillColor=#ffffff;strokeWidth=NaN;lucidId=q~r7H7P4bJOX;" vertex="1" parent="1">
          <mxGeometry x="-960" y="-60" width="180" height="60" as="geometry" />
        </mxCell>
        <mxCell id="7268VmPEQmdFCBt6fVRC-34" value="Amélioration de fonctionnalité" style="html=1;overflow=block;blockSpacing=1;whiteSpace=wrap;fontSize=16.7;spacing=3.8;strokeOpacity=0;fillOpacity=0;rounded=1;absoluteArcSize=1;arcSize=9;fillColor=#ffffff;strokeWidth=NaN;lucidId=N~r7Y1xCbRcb;" vertex="1" parent="1">
          <mxGeometry x="-720" y="-59" width="180" height="60" as="geometry" />
        </mxCell>
        <mxCell id="7268VmPEQmdFCBt6fVRC-35" value="Nouvelle fonctionnalité" style="html=1;overflow=block;blockSpacing=1;whiteSpace=wrap;fontSize=16.7;spacing=3.8;strokeOpacity=0;fillOpacity=0;rounded=1;absoluteArcSize=1;arcSize=9;fillColor=#ffffff;strokeWidth=NaN;lucidId=3~r7XPkO~ofk;" vertex="1" parent="1">
          <mxGeometry x="-510" y="-60" width="180" height="60" as="geometry" />
        </mxCell>
        <mxCell id="7268VmPEQmdFCBt6fVRC-36" value="Demande particulière" style="html=1;overflow=block;blockSpacing=1;whiteSpace=wrap;fontSize=16.7;align=center;spacing=3.8;strokeOpacity=0;fillOpacity=0;rounded=1;absoluteArcSize=1;arcSize=9;fillColor=#ffffff;strokeWidth=NaN;lucidId=cas78cJPZkww;" vertex="1" parent="1">
          <mxGeometry x="-270" y="-60" width="180" height="60" as="geometry" />
        </mxCell>
        <mxCell id="7268VmPEQmdFCBt6fVRC-37" value="Elevée" style="html=1;overflow=block;blockSpacing=1;whiteSpace=wrap;fontSize=16.7;spacing=3.8;strokeOpacity=0;fillOpacity=0;rounded=1;absoluteArcSize=1;arcSize=9;fillColor=#ffffff;strokeWidth=NaN;lucidId=qas7vaDFUzR8;" vertex="1" parent="1">
          <mxGeometry x="-900" y="330" width="180" height="60" as="geometry" />
        </mxCell>
        <mxCell id="7268VmPEQmdFCBt6fVRC-38" value="Imoprtante" style="html=1;overflow=block;blockSpacing=1;whiteSpace=wrap;fontSize=16.7;spacing=3.8;strokeOpacity=0;fillOpacity=0;rounded=1;absoluteArcSize=1;arcSize=9;fillColor=#ffffff;strokeWidth=NaN;lucidId=Aas7my7fzRF.;" vertex="1" parent="1">
          <mxGeometry x="-705" y="330" width="180" height="60" as="geometry" />
        </mxCell>
        <mxCell id="7268VmPEQmdFCBt6fVRC-39" value="Moyenne" style="html=1;overflow=block;blockSpacing=1;whiteSpace=wrap;fontSize=16.7;spacing=3.8;strokeOpacity=0;fillOpacity=0;rounded=1;absoluteArcSize=1;arcSize=9;fillColor=#ffffff;strokeWidth=NaN;lucidId=Kas7NrRCl92G;" vertex="1" parent="1">
          <mxGeometry x="-510" y="330" width="180" height="60" as="geometry" />
        </mxCell>
        <mxCell id="7268VmPEQmdFCBt6fVRC-40" value="Faible" style="html=1;overflow=block;blockSpacing=1;whiteSpace=wrap;fontSize=16.7;spacing=3.8;strokeOpacity=0;fillOpacity=0;rounded=1;absoluteArcSize=1;arcSize=9;fillColor=#ffffff;strokeWidth=NaN;lucidId=Was7UFfYuZFJ;" vertex="1" parent="1">
          <mxGeometry x="-300" y="330" width="180" height="60" as="geometry" />
        </mxCell>
        <mxCell id="7268VmPEQmdFCBt6fVRC-41" value="&lt;div style=&quot;display: flex; justify-content: center; text-align: center; align-items: baseline; font-size: 0; line-height: 1.25;margin-top: -2px;&quot;&gt;&lt;span&gt;&lt;span style=&quot;font-size:16.7px;&quot;&gt;Durée du travail estimée ?&#xa;&lt;/span&gt;&lt;span style=&quot;font-size:13.3px;font-style: italic;&quot;&gt;Calculé en jour par personne&lt;/span&gt;&lt;/span&gt;&lt;/div&gt;" style="html=1;overflow=block;blockSpacing=1;whiteSpace=wrap;fontSize=13;spacing=3.8;strokeColor=#unset;rounded=1;absoluteArcSize=1;arcSize=9;fillColor=#unset;strokeWidth=NaN;lucidId=wbs7ypl_VjJa;" vertex="1" parent="1">
          <mxGeometry x="-277" y="630" width="135" height="88" as="geometry" />
        </mxCell>
        <mxCell id="7268VmPEQmdFCBt6fVRC-42" value="" style="html=1;jettySize=18;whiteSpace=wrap;fontSize=13;strokeColor=#3a414a;strokeOpacity=100;strokeWidth=0.8;rounded=1;arcSize=12;edgeStyle=orthogonalEdgeStyle;startArrow=none;endArrow=block;endFill=1;exitX=1.006;exitY=0.5;exitPerimeter=0;entryX=0.5;entryY=1;entryPerimeter=0;lucidId=7bs7uB7d7-~h;" edge="1" parent="1" source="7268VmPEQmdFCBt6fVRC-41" target="7268VmPEQmdFCBt6fVRC-23">
          <mxGeometry width="100" height="100" relative="1" as="geometry">
            <Array as="points" />
          </mxGeometry>
        </mxCell>
        <mxCell id="7268VmPEQmdFCBt6fVRC-43" value="Quelle tâche ?" style="html=1;overflow=block;blockSpacing=1;whiteSpace=wrap;fontSize=16.7;spacing=3.8;strokeColor=#unset;rounded=1;absoluteArcSize=1;arcSize=9;fillColor=#unset;strokeWidth=NaN;lucidId=9es7En538.l.;" vertex="1" parent="1">
          <mxGeometry x="-600" y="-480" width="143" height="48" as="geometry" />
        </mxCell>
        <mxCell id="7268VmPEQmdFCBt6fVRC-44" value="" style="html=1;jettySize=18;whiteSpace=wrap;fontSize=13;strokeColor=#3a414a;strokeOpacity=100;strokeWidth=0.8;rounded=1;arcSize=12;edgeStyle=orthogonalEdgeStyle;startArrow=none;endArrow=block;endFill=1;exitX=0.5;exitY=1.016;exitPerimeter=0;entryX=0.5;entryY=-0.017;entryPerimeter=0;lucidId=yfs7n4fkxC1-;" edge="1" parent="1" source="7268VmPEQmdFCBt6fVRC-43" target="7268VmPEQmdFCBt6fVRC-14">
          <mxGeometry width="100" height="100" relative="1" as="geometry">
            <Array as="points" />
          </mxGeometry>
        </mxCell>
      </root>
    </mxGraphModel>
  </diagram>
</mxfile>
